<svg width="24" height="25" viewBox="0 0 24 25" fill="none" xmlns="http://www.w3.org/2000/svg">
<path fill-rule="evenodd" clip-rule="evenodd" d="M4.2539 4.31818C4.20946 4.31818 4.16179 4.33609 4.12278 4.37614C4.08298 4.41702 4.05646 4.47749 4.05646 4.54545V10.2273C4.05646 10.2952 4.08298 10.3557 4.12278 10.3966C4.16179 10.4366 4.20946 10.4545 4.2539 10.4545H8.68003C8.72447 10.4545 8.77215 10.4366 8.81115 10.3966C8.85095 10.3557 8.87747 10.2952 8.87747 10.2273V4.54545C8.87747 4.47749 8.85096 4.41702 8.81115 4.37614C8.77215 4.33609 8.72447 4.31818 8.68003 4.31818H4.2539ZM2.82015 3.10771C3.19618 2.72154 3.71141 2.5 4.2539 2.5H8.68003C9.22253 2.5 9.73776 2.72154 10.1138 3.10771C10.489 3.49305 10.6957 4.01065 10.6957 4.54545V10.2273C10.6957 10.7621 10.489 11.2797 10.1138 11.665C9.73776 12.0512 9.22253 12.2727 8.68003 12.2727H4.2539C3.71141 12.2727 3.19618 12.0512 2.82015 11.665C2.44493 11.2797 2.23828 10.7621 2.23828 10.2273V4.54545C2.23828 4.01065 2.44493 3.49305 2.82015 3.10771ZM15.3192 4.31818C15.2748 4.31818 15.2271 4.33609 15.1881 4.37614C15.1483 4.41702 15.1218 4.47749 15.1218 4.54545V6.81818C15.1218 6.88614 15.1483 6.94661 15.1881 6.98749C15.2271 7.02755 15.2748 7.04545 15.3192 7.04545H19.7453C19.7898 7.04545 19.8375 7.02755 19.8765 6.98749C19.9163 6.94662 19.9428 6.88615 19.9428 6.81818V4.54545C19.9428 4.47749 19.9163 4.41702 19.8765 4.37614C19.8375 4.33609 19.7898 4.31818 19.7453 4.31818H15.3192ZM13.8855 3.10771C14.2615 2.72154 14.7767 2.5 15.3192 2.5H19.7453C20.2878 2.5 20.8031 2.72154 21.1791 3.10771C21.5543 3.49305 21.761 4.01065 21.761 4.54545V6.81818C21.761 7.35298 21.5543 7.87059 21.1791 8.25593C20.8031 8.64209 20.2878 8.86364 19.7453 8.86364H15.3192C14.7767 8.86364 14.2615 8.64209 13.8855 8.25593C13.5102 7.87059 13.3036 7.35299 13.3036 6.81818V4.54545C13.3036 4.01065 13.5102 3.49305 13.8855 3.10771ZM15.3192 13.4091C15.2748 13.4091 15.2271 13.427 15.1881 13.4671C15.1483 13.5079 15.1218 13.5684 15.1218 13.6364V20.4545C15.1218 20.5225 15.1483 20.583 15.1881 20.6239C15.2271 20.6639 15.2748 20.6818 15.3192 20.6818H19.7453C19.7898 20.6818 19.8375 20.6639 19.8765 20.6239C19.9163 20.583 19.9428 20.5225 19.9428 20.4545V13.6364C19.9428 13.5684 19.9163 13.5079 19.8765 13.4671C19.8375 13.427 19.7898 13.4091 19.7453 13.4091H15.3192ZM13.8855 12.1986C14.2615 11.8125 14.7767 11.5909 15.3192 11.5909H19.7453C20.2878 11.5909 20.8031 11.8125 21.1791 12.1986C21.5543 12.584 21.761 13.1016 21.761 13.6364V20.4545C21.761 20.9893 21.5543 21.507 21.1791 21.8923C20.8031 22.2785 20.2878 22.5 19.7453 22.5H15.3192C14.7767 22.5 14.2615 22.2785 13.8855 21.8923C13.5102 21.507 13.3036 20.9893 13.3036 20.4545V13.6364C13.3036 13.1016 13.5102 12.584 13.8855 12.1986ZM4.2539 16.8182C4.20946 16.8182 4.16179 16.8361 4.12278 16.8761C4.08298 16.917 4.05646 16.9775 4.05646 17.0455V20.4545C4.05646 20.5225 4.08298 20.583 4.12278 20.6239C4.16179 20.6639 4.20946 20.6818 4.2539 20.6818H8.68003C8.72447 20.6818 8.77215 20.6639 8.81115 20.6239C8.85095 20.583 8.87747 20.5225 8.87747 20.4545V17.0455C8.87747 16.9775 8.85096 16.917 8.81115 16.8761C8.77215 16.8361 8.72447 16.8182 8.68003 16.8182H4.2539ZM2.82015 15.6077C3.19618 15.2215 3.7114 15 4.2539 15H8.68003C9.22253 15 9.73776 15.2215 10.1138 15.6077C10.489 15.993 10.6957 16.5107 10.6957 17.0455V20.4545C10.6957 20.9893 10.489 21.507 10.1138 21.8923C9.73776 22.2785 9.22253 22.5 8.68003 22.5H4.2539C3.71141 22.5 3.19618 22.2785 2.82015 21.8923C2.44493 21.507 2.23828 20.9893 2.23828 20.4545V17.0455C2.23828 16.5107 2.44493 15.993 2.82015 15.6077Z" fill="#314AF8"/>
</svg>
