<svg width="24" height="25" viewBox="0 0 24 25" fill="none" xmlns="http://www.w3.org/2000/svg">
<path fill-rule="evenodd" clip-rule="evenodd" d="M21.2071 5.29289C21.5977 5.68342 21.5977 6.31658 21.2071 6.70711L15.7071 12.2071C15.3414 12.5728 14.7572 12.5993 14.3598 12.2682L9.00003 7.80171L3.64021 12.2682C3.21593 12.6218 2.58537 12.5645 2.2318 12.1402C1.87824 11.7159 1.93556 11.0853 2.35984 10.7318L8.35984 5.73178C8.73069 5.42274 9.26936 5.42274 9.64021 5.73178L14.9387 10.1472L19.7929 5.29289C20.1834 4.90237 20.8166 4.90237 21.2071 5.29289ZM9.00003 12.5C9.55231 12.5 10 12.9477 10 13.5V19.5C10 20.0523 9.55231 20.5 9.00003 20.5C8.44774 20.5 8.00003 20.0523 8.00003 19.5V13.5C8.00003 12.9477 8.44774 12.5 9.00003 12.5ZM21 12.5C21.5523 12.5 22 12.9477 22 13.5V19.5C22 20.0523 21.5523 20.5 21 20.5C20.4477 20.5 20 20.0523 20 19.5V13.5C20 12.9477 20.4477 12.5 21 12.5ZM3.00003 14.5C3.55231 14.5 4.00003 14.9477 4.00003 15.5V19.5C4.00003 20.0523 3.55231 20.5 3.00003 20.5C2.44774 20.5 2.00003 20.0523 2.00003 19.5V15.5C2.00003 14.9477 2.44774 14.5 3.00003 14.5ZM14 19.5V15.5C14 14.9477 14.4477 14.5 15 14.5C15.5523 14.5 16 14.9477 16 15.5V19.5C16 20.0523 15.5523 20.5 15 20.5C14.4477 20.5 14 20.0523 14 19.5Z" fill="#B8BBC8"/>
</svg>
