<svg width="32" height="33" viewBox="0 0 32 33" fill="none" xmlns="http://www.w3.org/2000/svg">
<mask id="mask0_2287_253" style="mask-type:luminance" maskUnits="userSpaceOnUse" x="0" y="0" width="32" height="33">
<path d="M32 0.5H0V32.5H32V0.5Z" fill="white"/>
</mask>
<g mask="url(#mask0_2287_253)">
<path d="M31.9944 14.6889L19.0184 16.1483C18.6942 16.1864 18.3657 16.1475 18.0597 16.0346C17.7537 15.9218 17.4791 15.7382 17.2586 15.4992C17.0382 15.2602 16.8783 14.9725 16.792 14.66C16.7057 14.3474 16.6955 14.0189 16.7623 13.7017L17.7154 9.0674C17.7802 8.75042 17.9199 8.45322 18.1231 8.20031C18.3261 7.94739 18.5868 7.74596 18.8835 7.6126L21.5555 6.40527L20.2435 12.7871L28.2571 11.8793C28.581 11.8423 28.9091 11.8824 29.2144 11.996C29.5196 12.1097 29.7932 12.2936 30.0126 12.5329L31.9944 14.6889Z" fill="#314AF8"/>
<path d="M22.9612 32.4385L17.5556 20.6371C17.4192 20.343 17.3553 20.0208 17.369 19.6973C17.3827 19.3737 17.4737 19.0581 17.6344 18.7763C17.7952 18.4946 18.021 18.2548 18.2935 18.0768C18.5659 17.8989 18.877 17.7877 19.2013 17.7526L23.935 17.2192C24.2589 17.1833 24.5864 17.224 24.8916 17.3375C25.1965 17.451 25.4703 17.6345 25.6904 17.8729L27.6721 20.0244L21.1533 20.7551L24.4928 28.0448C24.6276 28.3396 24.6905 28.6616 24.6761 28.985C24.6617 29.3084 24.5706 29.6238 24.4104 29.9057L22.9612 32.4385Z" fill="#314AF8"/>
<path d="M17.8002 0.686035L15.1876 13.3953C15.1238 13.7129 14.9848 14.011 14.7821 14.2648C14.5795 14.5186 14.319 14.7211 14.022 14.8552C13.725 14.9893 13.4001 15.0514 13.0742 15.0362C12.7483 15.0212 12.4307 14.9293 12.1477 14.7683L8.00133 12.4329C7.71733 12.2736 7.4755 12.0497 7.29587 11.7794C7.11624 11.5091 7.00394 11.2002 6.96819 10.8784L6.63672 7.98247L12.351 11.1938L13.9647 3.34815C14.0295 3.03116 14.1693 2.73399 14.3723 2.48108C14.5753 2.22817 14.836 2.02672 15.1328 1.89337L17.8002 0.686035Z" fill="#314AF8"/>
<path d="M3.17578 29.4109L12.81 20.6575C13.0499 20.4375 13.3388 20.2774 13.6532 20.1903C13.9676 20.1032 14.2985 20.0917 14.6183 20.1567C14.9381 20.2217 15.2378 20.3612 15.4925 20.5639C15.7472 20.7667 15.9497 21.0267 16.0831 21.3224L18.0558 25.6344C18.1914 25.929 18.2544 26.2515 18.2396 26.5752C18.2249 26.8986 18.1329 27.2141 17.9712 27.4955L16.5243 30.0305L13.809 24.1026L7.86609 29.5085C7.62577 29.7273 7.33647 29.8864 7.02212 29.9724C6.70776 30.0584 6.37733 30.0691 6.05805 30.0033L3.17578 29.4109Z" fill="#314AF8"/>
<path d="M0 9.76611L11.3623 16.1593C11.6468 16.3178 11.8894 16.5412 12.0699 16.8111C12.2504 17.081 12.3636 17.3897 12.4002 17.7116C12.4368 18.0335 12.3958 18.3594 12.2805 18.6626C12.1652 18.9657 11.979 19.2371 11.7371 19.4547L8.22858 22.6478C7.9885 22.8663 7.69964 23.0251 7.38571 23.1111C7.07179 23.1971 6.74183 23.208 6.42288 23.1426L3.54509 22.5594L8.38405 18.1632L1.37142 14.2189C1.08773 14.0598 0.846135 13.8362 0.666519 13.5663C0.4869 13.2965 0.374384 12.988 0.338281 12.6665L0 9.76611Z" fill="#314AF8"/>
</g>
</svg>
