<svg width="153" height="41" viewBox="0 0 153 41" fill="none" xmlns="http://www.w3.org/2000/svg">
<mask id="mask0_2241_1557" style="mask-type:luminance" maskUnits="userSpaceOnUse" x="0" y="0" width="39" height="41">
<path d="M38.654 0.5H0V40.5H38.654V0.5Z" fill="white"/>
</mask>
<g mask="url(#mask0_2241_1557)">
<path d="M38.6512 18.236L22.977 20.0602C22.5854 20.1079 22.1886 20.0593 21.819 19.9182C21.4494 19.7771 21.1176 19.5477 20.8514 19.2489C20.5851 18.9502 20.3919 18.5905 20.2877 18.1998C20.1834 17.8091 20.1711 17.3986 20.2519 17.002L21.4031 11.2091C21.4814 10.8129 21.6502 10.4414 21.8955 10.1253C22.1407 9.80912 22.4557 9.55733 22.8142 9.39063L26.0417 7.88147L24.4569 15.8587L34.1369 14.724C34.5281 14.6778 34.9244 14.7279 35.2932 14.8699C35.6619 15.0119 35.9923 15.2419 36.2573 15.541L38.6512 18.236Z" fill="#314AF8"/>
<path d="M27.7338 40.4235L21.2042 25.6717C21.0394 25.3041 20.9622 24.9014 20.9788 24.4969C20.9954 24.0925 21.1052 23.698 21.2994 23.3458C21.4936 22.9936 21.7664 22.6938 22.0955 22.4714C22.4246 22.2489 22.8004 22.11 23.192 22.0661L28.91 21.3993C29.3013 21.3546 29.697 21.4053 30.0655 21.5473C30.4339 21.6892 30.7646 21.9184 31.0305 22.2165L33.4243 24.9059L25.55 25.8193L29.5838 34.9313C29.7466 35.2998 29.8226 35.7024 29.8052 36.1066C29.7878 36.5108 29.6779 36.9052 29.4844 37.2575L27.7338 40.4235Z" fill="#314AF8"/>
<path d="M21.5005 0.732544L18.3445 16.6191C18.2675 17.0162 18.0996 17.3888 17.8548 17.706C17.61 18.0233 17.2953 18.2763 16.9366 18.444C16.5778 18.6116 16.1854 18.6892 15.7917 18.6703C15.3981 18.6515 15.0144 18.5366 14.6725 18.3353L9.66399 15.4161C9.32094 15.2171 9.02882 14.9371 8.81184 14.5992C8.59485 14.2614 8.45921 13.8753 8.41602 13.473L8.01562 9.85308L14.9181 13.8672L16.8674 4.06018C16.9456 3.66395 17.1145 3.29249 17.3597 2.97635C17.605 2.66021 17.9199 2.4084 18.2784 2.24171L21.5005 0.732544Z" fill="#314AF8"/>
<path d="M3.83594 36.6389L15.4735 25.6971C15.7632 25.4221 16.1122 25.222 16.492 25.1131C16.8718 25.0043 17.2715 24.9899 17.6578 25.0712C18.0441 25.1524 18.4061 25.3268 18.7138 25.5801C19.0215 25.8336 19.266 26.1586 19.4272 26.5282L21.8101 31.9183C21.9738 32.2865 22.0499 32.6897 22.0321 33.0942C22.0143 33.4985 21.9032 33.8928 21.7079 34.2446L19.9601 37.4133L16.6801 30.0035L9.50154 36.7609C9.21124 37.0344 8.86179 37.2332 8.48207 37.3408C8.10235 37.4482 7.70321 37.4616 7.31753 37.3793L3.83594 36.6389Z" fill="#314AF8"/>
<path d="M0 12.0828L13.7249 20.0743C14.0687 20.2724 14.3616 20.5516 14.5797 20.8891C14.7977 21.2264 14.9344 21.6123 14.9787 22.0146C15.0229 22.417 14.9733 22.8244 14.8341 23.2034C14.6948 23.5822 14.4698 23.9215 14.1777 24.1935L9.9396 28.1848C9.64961 28.458 9.30068 28.6565 8.92147 28.764C8.54228 28.8715 8.1437 28.8851 7.75843 28.8034L4.28225 28.0743L10.1274 22.5792L1.65659 17.6487C1.3139 17.4499 1.02208 17.1703 0.805113 16.833C0.588145 16.4957 0.452232 16.1102 0.408622 15.7083L0 12.0828Z" fill="#314AF8"/>
</g>
<path d="M148.34 19.515V15.7094H149.256L150.487 18.6083H150.506L151.741 15.7094H152.653V19.515H152V16.5598H151.981L150.75 19.515H150.205L148.969 16.5551H148.951V19.515H148.34Z" fill="#212B55"/>
<path d="M146.602 19.515H145.954V16.2732H144.652V15.7094H147.904V16.2732H146.602V19.515Z" fill="#212B55"/>
<path d="M137.892 31.1898C136.937 31.1898 136.191 30.9488 135.654 30.4668C135.133 29.9848 134.873 29.2532 134.873 28.272V18.4341H132.062V15.697H134.899V11.0492H138.386V15.697H142.264V18.4341H138.412V28.4269H142.654V31.1898H137.892Z" fill="#212B55"/>
<path d="M124.716 31.5C122.495 31.5 120.743 31.0438 119.459 30.1314C118.176 29.2019 117.473 27.9108 117.352 26.2582H120.813C120.934 27.1017 121.324 27.73 121.984 28.1432C122.643 28.5563 123.597 28.7629 124.846 28.7629C126.997 28.7629 128.073 28.126 128.073 26.8521C128.073 26.3357 127.908 25.9312 127.579 25.6385C127.249 25.3459 126.703 25.1307 125.939 24.993L122.478 24.3475C119.477 23.7794 117.976 22.3678 117.976 20.1128C117.976 18.6668 118.549 17.522 119.694 16.6785C120.839 15.8178 122.409 15.3875 124.404 15.3875C126.416 15.3875 128.012 15.8264 129.192 16.7043C130.389 17.5823 131.057 18.8045 131.196 20.371H127.787C127.596 19.5791 127.214 18.9938 126.642 18.6151C126.087 18.2364 125.28 18.047 124.222 18.047C123.285 18.047 122.565 18.202 122.062 18.5118C121.559 18.8217 121.307 19.2693 121.307 19.8545C121.307 20.2849 121.463 20.6378 121.775 20.9132C122.105 21.1714 122.617 21.3694 123.311 21.5071L126.798 22.1785C128.377 22.4711 129.53 22.9789 130.259 23.7019C130.988 24.4077 131.352 25.3631 131.352 26.5681C131.352 28.1174 130.779 29.331 129.634 30.2089C128.489 31.0696 126.85 31.5 124.716 31.5Z" fill="#212B55"/>
<path d="M108.486 31.5C106.838 31.5 105.398 31.1729 104.167 30.5187C102.952 29.8474 102.015 28.9006 101.356 27.6784C100.697 26.4562 100.367 25.0274 100.367 23.3921C100.367 21.7567 100.688 20.3451 101.33 19.1574C101.989 17.9524 102.917 17.0228 104.115 16.3687C105.312 15.7145 106.725 15.3875 108.356 15.3875C109.918 15.3875 111.262 15.6973 112.39 16.317C113.518 16.9195 114.385 17.7888 114.992 18.925C115.617 20.0439 115.929 21.378 115.929 22.9273V24.2183H103.75C103.889 25.6299 104.366 26.723 105.181 27.4977C105.997 28.2551 107.09 28.6338 108.46 28.6338C109.467 28.6338 110.291 28.4444 110.933 28.0657C111.574 27.687 112.017 27.1189 112.26 26.3615H115.851C115.469 27.9797 114.628 29.2449 113.327 30.1572C112.043 31.0524 110.429 31.5 108.486 31.5ZM103.854 21.7653H112.546C112.407 20.6292 111.973 19.7599 111.245 19.1574C110.516 18.5377 109.553 18.2278 108.356 18.2278C107.159 18.2278 106.17 18.5377 105.39 19.1574C104.609 19.7599 104.097 20.6292 103.854 21.7653Z" fill="#212B55"/>
<path d="M89.9041 31.1897L83.2422 15.6969H86.9635L91.8038 27.3165H91.9079L96.6701 15.6969H100.287L93.6254 31.1897H89.9041Z" fill="#212B55"/>
<path d="M67.1901 31.1899V19.2346H65.3945V15.6971H69.0898V18.1501H70.1828C70.7379 17.2722 71.4752 16.6009 72.3947 16.1361C73.3316 15.6541 74.4592 15.4131 75.7777 15.4131C77.8596 15.4131 79.4817 15.9984 80.644 17.1689C81.8237 18.3223 82.4136 19.8716 82.4136 21.8168V31.1899H78.8745V22.4365C78.8745 21.1626 78.5275 20.19 77.8335 19.5187C77.1569 18.8473 76.1507 18.5116 74.8149 18.5116C73.479 18.5116 72.4641 18.8473 71.7702 19.5187C71.0762 20.19 70.7293 21.1626 70.7293 22.4365V31.1899H67.1901Z" fill="#212B55"/>
<path d="M49.645 31.1899V18.4342H46.6523V15.6971H49.697V12.4695C49.697 11.471 49.9659 10.7308 50.5038 10.2488C51.0589 9.74961 51.8223 9.5 52.7938 9.5H57.1917V12.2371H53.1581V15.6971H56.8794V18.4342H53.1841V31.1899H49.645ZM59.4036 31.1899V15.6971H62.9428V31.1899H59.4036ZM61.1732 13.838C60.6181 13.838 60.141 13.6486 59.7419 13.2699C59.3429 12.874 59.1434 12.392 59.1434 11.8239C59.1434 11.2731 59.3342 10.7997 59.7159 10.4037C60.1149 10.0078 60.6007 9.80986 61.1732 9.80986C61.7284 9.80986 62.2055 10.0078 62.6045 10.4037C63.0035 10.7825 63.203 11.2558 63.203 11.8239C63.203 12.3748 63.0035 12.8482 62.6045 13.2441C62.2228 13.64 61.7457 13.838 61.1732 13.838Z" fill="#212B55"/>
</svg>
