<svg width="16" height="17" viewBox="0 0 16 17" fill="none" xmlns="http://www.w3.org/2000/svg">
<mask id="mask0_2287_253" style="mask-type:luminance" maskUnits="userSpaceOnUse" x="0" y="0" width="16" height="17">
<path d="M16 0.5H0V16.5H16V0.5Z" fill="white"/>
</mask>
<g mask="url(#mask0_2287_253)">
<path d="M15.9972 7.59447L9.50918 8.32413C9.34709 8.34322 9.18283 8.32375 9.02984 8.26731C8.87685 8.21088 8.73954 8.11912 8.62932 7.99962C8.5191 7.88012 8.43915 7.73626 8.396 7.57998C8.35285 7.4237 8.34773 7.25947 8.38117 7.10084L8.85771 4.7837C8.89011 4.62521 8.95997 4.47661 9.06153 4.35015C9.16303 4.2237 9.29338 4.12298 9.44177 4.0563L10.7778 3.45264L10.1217 6.64353L14.1286 6.18965C14.2905 6.17117 14.4545 6.1912 14.6072 6.24801C14.7598 6.30483 14.8966 6.39682 15.0063 6.51646L15.9972 7.59447Z" fill="#314AF8"/>
<path d="M11.4806 16.4693L8.77782 10.5685C8.70961 10.4215 8.67764 10.2604 8.68451 10.0986C8.69137 9.93685 8.73685 9.77906 8.81722 9.63816C8.8976 9.49731 9.01052 9.37739 9.14674 9.28841C9.28297 9.19943 9.43851 9.14384 9.60065 9.1263L11.9675 8.85959C12.1294 8.84167 12.2932 8.86199 12.4458 8.91876C12.5983 8.97552 12.7351 9.06723 12.8452 9.18645L13.8361 10.2622L10.5767 10.6276L12.2464 14.2724C12.3138 14.4198 12.3452 14.5808 12.338 14.7425C12.3308 14.9042 12.2853 15.0619 12.2052 15.2029L11.4806 16.4693Z" fill="#314AF8"/>
<path d="M8.90207 0.593018L7.59574 6.94765C7.56386 7.10646 7.49438 7.2555 7.39301 7.38239C7.2917 7.50932 7.16144 7.61053 7.01295 7.67759C6.86446 7.74465 6.702 7.77569 6.53906 7.76812C6.37613 7.7606 6.21731 7.71465 6.07578 7.63413L4.00262 6.46644C3.86062 6.38682 3.7397 6.27484 3.64989 6.13968C3.56007 6.00457 3.50392 5.85012 3.48605 5.68919L3.32031 4.24123L6.17743 5.84688L6.9843 1.92407C7.0167 1.76558 7.08661 1.617 7.18811 1.49054C7.28961 1.36409 7.41996 1.26336 7.56836 1.19668L8.90207 0.593018Z" fill="#314AF8"/>
<path d="M1.58594 14.9554L6.40306 10.5787C6.52298 10.4687 6.66745 10.3887 6.82465 10.3452C6.98186 10.3016 7.14731 10.2959 7.30721 10.3284C7.46712 10.3609 7.61693 10.4306 7.7443 10.532C7.87166 10.6334 7.97288 10.7633 8.03962 10.9112L9.02596 13.0672C9.09374 13.2145 9.12523 13.3758 9.11785 13.5376C9.1105 13.6993 9.06451 13.857 8.98366 13.9977L8.2602 15.2652L6.90252 12.3013L3.93109 15.0043C3.81093 15.1137 3.66628 15.1932 3.50911 15.2362C3.35193 15.2792 3.18671 15.2846 3.02707 15.2516L1.58594 14.9554Z" fill="#314AF8"/>
<path d="M0 5.13306L5.68114 8.32966C5.82342 8.40891 5.94468 8.5206 6.03496 8.65557C6.12519 8.7905 6.18179 8.94485 6.20012 9.10579C6.2184 9.26677 6.19789 9.42972 6.14025 9.5813C6.08261 9.73283 5.98949 9.86856 5.86856 9.97733L4.11429 11.5739C3.99425 11.6831 3.84982 11.7626 3.69286 11.8056C3.5359 11.8485 3.37091 11.854 3.21144 11.8213L1.77255 11.5297L4.19202 9.33162L0.685712 7.35945C0.543863 7.27992 0.423067 7.16808 0.333259 7.03316C0.24345 6.89823 0.187192 6.74402 0.169141 6.58327L0 5.13306Z" fill="#314AF8"/>
</g>
</svg>
