<svg width="24" height="25" viewBox="0 0 24 25" fill="none" xmlns="http://www.w3.org/2000/svg">
<path d="M14 3.5C14.5304 3.5 15.0391 3.71071 15.4142 4.08579C15.7893 4.46086 16 4.96957 16 5.5V8.5H20C20.5304 8.5 21.0391 8.71071 21.4142 9.08579C21.7893 9.46086 22 9.96957 22 10.5V19.5C22 20.0304 21.7893 20.5391 21.4142 20.9142C21.0391 21.2893 20.5304 21.5 20 21.5H4C3.46957 21.5 2.96086 21.2893 2.58579 20.9142C2.21071 20.5391 2 20.0304 2 19.5V13.5C2 12.9696 2.21071 12.4609 2.58579 12.0858C2.96086 11.7107 3.46957 11.5 4 11.5H8V5.5C8 4.96957 8.21071 4.46086 8.58579 4.08579C8.96086 3.71071 9.46957 3.5 10 3.5H14ZM14 5.5H10V19.5H14V5.5ZM20 10.5H16V19.5H20V10.5ZM8 13.5H4V19.5H8V13.5Z" fill="#B8BBC8"/>
</svg>
