<svg width="24" height="25" viewBox="0 0 24 25" fill="none" xmlns="http://www.w3.org/2000/svg">
<path fill-rule="evenodd" clip-rule="evenodd" d="M5 4.5C4.20435 4.5 3.44129 4.81607 2.87868 5.37868C2.31607 5.94129 2 6.70435 2 7.5V17.5C2 18.2956 2.31607 19.0587 2.87868 19.6213C3.44129 20.1839 4.20435 20.5 5 20.5H19C19.7956 20.5 20.5587 20.1839 21.1213 19.6213C21.6839 19.0587 22 18.2956 22 17.5V7.5C22 6.70435 21.6839 5.94129 21.1213 5.37868C20.5587 4.81607 19.7956 4.5 19 4.5H5ZM20 8.67V7.5C20 7.23478 19.8946 6.98043 19.7071 6.79289C19.5196 6.60536 19.2652 6.5 19 6.5H5C4.73478 6.5 4.48043 6.60536 4.29289 6.79289C4.10536 6.98043 4 7.23478 4 7.5V8.67C4.313 8.56 4.65 8.5 5 8.5H19C19.35 8.5 19.687 8.56 20 8.67ZM4 11.5V12.5H9C9.028 12.5 9.056 12.501 9.084 12.504C9.30489 12.4847 9.52594 12.5393 9.71239 12.6593C9.89884 12.7794 10.0401 12.9579 10.114 13.167C10.2522 13.5567 10.5077 13.8941 10.8454 14.1327C11.1831 14.3713 11.5865 14.4994 12 14.4994C12.4135 14.4994 12.8169 14.3713 13.1546 14.1327C13.4923 13.8941 13.7478 13.5567 13.886 13.167C13.9599 12.9579 14.1012 12.7794 14.2876 12.6593C14.4741 12.5393 14.6951 12.4847 14.916 12.504C14.943 12.5 14.972 12.5 15 12.5H20V11.5C20 11.2348 19.8946 10.9804 19.7071 10.7929C19.5196 10.6054 19.2652 10.5 19 10.5H5C4.73478 10.5 4.48043 10.6054 4.29289 10.7929C4.10536 10.9804 4 11.2348 4 11.5ZM15.465 14.5C15.114 15.1083 14.6089 15.6135 14.0007 15.9646C13.3924 16.3157 12.7023 16.5004 12 16.5C11.2977 16.5004 10.6076 16.3157 9.99934 15.9646C9.39105 15.6135 8.88599 15.1083 8.535 14.5H4V17.5C4 17.7652 4.10536 18.0196 4.29289 18.2071C4.48043 18.3946 4.73478 18.5 5 18.5H19C19.2652 18.5 19.5196 18.3946 19.7071 18.2071C19.8946 18.0196 20 17.7652 20 17.5V14.5H15.465Z" fill="#B8BBC8"/>
</svg>
